<svg width="157" height="20" viewBox="0 0 157 20" fill="none" xmlns="http://www.w3.org/2000/svg">
      <g>
      <path d="M27.4462 3.97251C28.6079 3.97251 29.4107 3.21041 29.4391 2.07679C29.4579 1.00032 28.6174 0.190589 27.484 0.171537C26.379 0.152484 25.529 0.952689 25.5101 2.02916C25.4912 3.15325 26.3034 3.96298 27.4557 3.97251" fill="#001689"></path>
      <path d="M18.7476 5.54436V5.93493C18.8798 5.93493 18.9648 5.93493 19.0498 5.94446C19.8432 6.03019 20.4193 6.63987 20.3626 7.42103C20.3248 7.72587 20.2965 8.04976 20.2115 8.34507C19.5032 10.5933 17.8692 15.3373 17.8031 15.4517C17.7181 15.2611 17.5859 14.9277 17.5481 14.7848C17.1798 13.6321 16.8209 12.489 16.4714 11.3363C16.1125 10.1455 15.7631 8.97381 15.4609 7.78302C14.8564 5.85872 16.7076 5.96351 16.7926 5.93493V5.56341H8.77406V5.91588C8.91573 5.91588 8.98184 5.91588 8.98184 5.91588C9.8602 5.95399 10.5024 6.35409 10.8235 7.10666L11.1824 8.02118C11.1824 8.02118 11.4658 8.85949 11.4847 9.04049C10.7763 11.0696 9.25574 15.3183 9.18963 15.4326C9.12351 15.2802 8.99129 14.9849 8.9724 14.9087C8.37739 12.9653 7.77293 11.041 7.22514 9.10717C7.05514 8.52607 6.92291 7.91639 6.84736 7.30671C6.78124 6.65893 7.02681 5.99209 7.76349 5.90635H7.96182V5.55388H0V5.90635C0.141669 5.90635 0.358896 5.90635 0.358896 5.90635C1.23725 5.94446 1.87004 6.34456 2.2006 7.09713L2.47449 7.79255L6.4129 18.7763C6.5168 18.9954 6.62069 19.0716 6.88514 19.0621H8.30183C8.58517 19.0621 8.72684 18.9764 8.82129 18.6906C9.74686 15.8137 11.768 9.9169 11.8436 9.70733L11.8625 9.68827C11.9002 9.79306 13.9497 15.8422 14.9131 18.7477C14.9697 18.9192 14.9792 19.043 15.2153 19.043H17.057C17.2081 19.043 17.2931 18.9192 17.3403 18.8144C17.4726 18.4905 19.8337 11.3839 20.9482 8.11644C21.2882 7.09714 21.7888 6.07783 22.9693 5.90635V5.51578H18.757L18.7476 5.54436Z" fill="#001689"></path>
      <path d="M31.535 18.6906C31.535 18.6906 30.0711 18.5572 30.0711 17.1569C30.0711 15.1849 30.0711 8.19265 30.0711 8.13549C30.0711 7.92592 30.0711 7.72586 30.0428 7.49723C29.92 6.2874 29.1267 5.55388 27.9839 5.55388H24.3382V5.94445H24.5177C25.4149 5.94445 26.1327 6.66845 26.1327 7.57344V7.5925C26.1327 7.77349 26.1421 13.4511 26.1327 15.9661C26.1327 16.4043 26.1044 16.833 26.0571 17.2712C26.0005 17.8427 25.7455 18.2047 25.1788 18.4143C24.8955 18.5191 24.6121 18.6048 24.3193 18.7001V19.0812H31.5256V18.6906H31.535Z" fill="#001689"></path>
      <path d="M39.6773 18.6811C39.6773 18.6811 38.2134 18.5286 38.2134 17.1378C38.2134 15.1659 38.2134 2.63886 38.2134 2.5817C38.2134 2.37213 38.2134 2.17208 38.185 1.94345C38.0717 0.733613 37.2689 9.15527e-05 36.1261 9.15527e-05H32.4899V0.390668H32.6694C33.5666 0.390668 34.2844 1.11466 34.2844 2.01966V2.03871C34.2844 2.21971 34.2844 2.40071 34.2844 2.5817C34.2844 5.08711 34.2844 13.4321 34.2844 15.9375C34.2844 16.3757 34.2561 16.8044 34.2088 17.2426C34.1522 17.8142 33.8972 18.1762 33.3399 18.3857C33.0566 18.4905 32.4805 18.6811 32.4805 18.6811V19.0716H39.6867C39.6867 18.9192 39.6867 18.6811 39.6867 18.6811" fill="#001689"></path>
      <path d="M54.9683 19.0811V18.7001C54.9683 18.7001 53.4666 18.5477 53.4666 17.1473C53.4666 15.042 53.4666 7.95448 53.4666 6.50649V2.58167C53.4666 2.3721 53.4666 2.17205 53.4383 1.94342C53.3249 0.733582 52.5221 6.10352e-05 51.3793 6.10352e-05H47.7431V0.390637H47.9226C48.8198 0.390637 49.5376 1.11463 49.5376 2.01963V2.03868C49.5376 2.21968 49.5376 2.40068 49.5376 2.58167C49.5376 3.38188 49.5376 7.04948 49.5376 7.04948C49.5093 7.04948 49.4621 7.06854 49.4243 7.07806C49.3676 7.01138 49.3109 6.9447 49.2637 6.86849C48.8387 6.24928 48.2815 5.80155 47.5637 5.61102C45.1459 4.98229 42.3975 5.90633 40.9713 8.38316C39.6491 10.6695 39.5641 13.1177 40.4047 15.566C41.2452 18.0142 43.1814 19.4622 45.5614 19.5574C47.3465 19.6337 48.7065 18.9954 49.4526 17.2711C49.4526 17.2711 49.4526 17.2616 49.4526 17.2521C49.4526 18.3667 49.4526 19.0811 49.4526 19.0811H54.9588H54.9683ZM49.4621 15.1182C49.4148 16.0804 49.1126 16.9758 48.4893 17.7379C47.4409 19.0049 45.6937 18.6143 44.9759 17.5093C44.4186 16.6615 44.2014 15.6993 44.0975 14.7181C43.9181 13.1177 43.9181 11.5078 44.1636 9.91689C44.3242 8.85947 44.617 7.84969 45.4198 7.07806C46.3642 6.17307 47.6581 6.23975 48.5554 7.2019C49.1787 7.85922 49.4526 8.64037 49.481 9.52631C49.4904 9.9931 49.5093 14.1751 49.4621 15.1277" fill="#001689"></path>
      <path d="M84.0568 4.85846C80.1278 4.85846 76.9355 8.05928 76.9355 12.0127C76.9355 15.9661 80.1184 19.1764 84.0568 19.1764C87.9952 19.1764 91.1781 15.9661 91.1781 12.0127C91.1781 8.05928 87.9858 4.85846 84.0568 4.85846ZM86.4935 16.3376C86.2102 17.2331 85.7285 17.9761 84.7746 18.2714C83.3296 18.7096 81.979 17.938 81.5729 16.3471C81.3556 15.5183 81.2329 14.6514 81.1951 13.7846C81.0912 11.8126 81.0817 9.84069 81.5445 7.89733C81.6295 7.54486 81.7712 7.19239 81.9412 6.87802C82.4134 5.9635 83.2351 5.62056 84.2079 5.64914C85.1996 5.67772 85.9174 6.18261 86.333 7.09713C86.6919 7.89733 86.843 8.74517 86.9091 9.61206C86.9657 10.4218 86.9752 11.2315 87.0035 12.0317C86.9657 13.4797 86.9563 14.9372 86.503 16.3376" fill="#001689"></path>
      <path d="M135.766 15.042C134.964 17.0139 133.481 18.1952 131.157 18.0904C129.854 18.0237 128.796 17.2902 128.352 16.0613C127.823 14.6038 127.842 13.0796 127.842 11.5078H135.426C136.522 11.5078 136.531 11.5078 136.522 10.3837C136.494 8.18311 135.502 6.57317 133.547 5.59197C132.385 5.01087 131.138 4.88703 129.863 5.01087C127.965 5.21092 126.388 6.0397 125.207 7.55437C123.706 9.49773 123.413 11.7173 123.923 14.0703C124.301 15.8327 125.254 17.1949 126.784 18.1285C128.05 18.8906 129.429 19.1478 130.883 19.1097C132.064 19.0811 133.169 18.8144 134.161 18.1571C135.389 17.3474 136.078 16.147 136.569 14.7753C136.352 14.6991 136.163 14.6324 135.965 14.5562C135.889 14.7372 135.832 14.8896 135.766 15.042ZM128.607 6.9828C129.07 6.02065 129.92 5.60149 131.063 5.72534C131.866 5.8206 132.555 6.47791 132.716 7.48769C132.848 8.31647 132.867 9.16431 132.876 10.0026C132.876 10.5075 132.64 10.7361 132.121 10.7361C130.742 10.7552 129.24 10.7457 127.861 10.7457V10.7076C127.937 9.43105 128.041 8.15453 128.607 6.97327" fill="#001689"></path>
      <path d="M73.8088 5.26807V5.65865C73.941 5.65865 74.026 5.65865 74.111 5.6777C74.9044 5.76344 75.4805 6.37312 75.4238 7.15427C75.386 7.45911 75.3577 7.783 75.2727 8.06879C74.5643 10.317 72.9304 15.0611 72.8643 15.1754C72.7793 14.9848 72.6471 14.6514 72.6093 14.5085C72.241 13.3559 71.8821 12.2127 71.5326 11.06C71.1737 9.86925 70.8243 8.69752 70.522 7.50674C69.9176 5.58244 71.7687 5.68723 71.8537 5.65865V5.28712H63.8447V5.63959C63.9864 5.63959 64.0525 5.63959 64.0525 5.63959C64.9308 5.6777 65.5731 6.0778 65.8942 6.83038L66.2531 7.7449C66.2531 7.7449 66.5364 8.5832 66.5553 8.7642C65.847 10.7838 64.3264 15.042 64.2603 15.1563C64.1941 15.0039 64.0619 14.7181 64.043 14.6324C63.4575 12.689 62.853 10.7742 62.2958 8.83089C62.1258 8.24979 61.9935 7.64011 61.918 7.03043C61.8519 6.38264 62.0974 5.7158 62.8247 5.63959H63.0325V5.28712H55.0801V5.63959C55.2217 5.63959 55.439 5.63959 55.439 5.63959C56.3173 5.6777 56.9501 6.0778 57.2712 6.83038L57.5451 7.52579L61.4835 18.5096C61.578 18.7287 61.6913 18.8049 61.9558 18.7953H63.3725C63.6558 18.7953 63.7975 18.7096 63.8919 18.4238C64.8269 15.5469 66.8481 9.65015 66.9142 9.45009L66.9331 9.43104C66.9709 9.53583 69.0204 15.585 69.9837 18.4905C70.0404 18.662 70.0498 18.7858 70.2859 18.7858H72.1182C72.2787 18.7858 72.3543 18.662 72.4015 18.5572C72.5338 18.2333 74.8949 11.1267 76.0094 7.85921C76.3494 6.8399 76.85 5.82059 78.0305 5.64912V5.25854H73.8182L73.8088 5.26807Z" fill="#001689"></path>
      <path d="M123.301 18.9097C123.301 18.7668 123.301 18.5191 123.301 18.5191C123.301 18.5191 121.799 18.3667 121.799 16.9759C121.799 14.8706 121.799 7.78304 121.799 6.33505C121.799 4.11543 121.799 2.78176 121.799 2.7627C121.799 2.55313 121.799 2.35308 121.771 2.12445C121.657 0.914612 120.854 0.181091 119.712 0.181091H116.075V0.571668H116.255C117.143 0.571668 117.87 1.29566 117.87 2.20066C117.87 2.20066 117.87 2.21018 117.87 2.21971C117.87 2.40071 117.87 2.58171 117.87 2.7627C117.87 3.56291 117.87 6.87804 117.87 6.87804C117.842 6.88757 117.794 6.8971 117.766 6.90662C117.709 6.83994 117.653 6.77326 117.606 6.69705C117.181 6.06831 116.623 5.63011 115.905 5.43958C113.488 4.81085 110.739 5.73489 109.313 8.21172C107.991 10.498 107.906 12.9367 108.746 15.3945C109.587 17.8428 111.523 19.2812 113.903 19.386C115.688 19.4622 117.048 18.824 117.794 17.0997C117.794 17.0997 117.794 17.0902 117.794 17.0807C117.794 18.1952 117.785 18.9002 117.785 18.9002H123.291L123.301 18.9097ZM117.794 14.9468C117.747 15.9089 117.454 16.8044 116.822 17.5665C115.773 18.8335 114.026 18.4429 113.308 17.3379C112.751 16.49 112.534 15.5279 112.43 14.5467C112.25 12.9463 112.25 11.3363 112.496 9.74545C112.657 8.68803 112.949 7.67825 113.752 6.90662C114.697 6.00163 115.99 6.06831 116.888 7.03046C117.502 7.68778 117.776 8.46893 117.813 9.35487C117.823 9.82166 117.842 14.0037 117.794 14.9563" fill="#001689"></path>
      <path d="M107.518 18.5476C107.518 18.5476 106.092 18.3952 106.092 16.9949C106.092 16.852 106.073 14.5466 106.064 14.0513C106.064 12.1746 106.082 10.3074 105.988 8.43077C105.922 6.95421 105.138 5.85869 103.693 5.35379C102.824 5.04895 101.927 5.04896 101.039 5.20138C99.5468 5.44906 97.6201 6.70652 97.3839 7.83062C97.3839 7.74488 97.3745 7.65915 97.365 7.56388C97.2517 6.35405 96.4489 5.62053 95.3061 5.62053H91.6605V6.01111H91.8399C92.7277 6.01111 93.455 6.7351 93.455 7.64009C93.455 7.64009 93.455 7.64962 93.455 7.65915C93.455 7.84015 93.455 8.02114 93.455 8.20214C93.455 9.17382 93.455 10.1836 93.455 11.2124C93.455 12.7081 93.455 14.2037 93.455 15.6898C93.455 16.128 93.4266 16.5757 93.3794 17.0044C93.3227 17.576 93.0583 18.0237 92.5011 18.2333C92.2177 18.3381 91.9249 18.4238 91.6416 18.5095V18.9096H98.8856V18.4905C98.8856 18.4905 98.8006 18.4714 98.7629 18.4619C98.7629 18.4619 98.3001 18.4143 97.8373 18.0428C97.8373 18.0428 97.8373 18.0428 97.8278 18.0332C97.6295 17.8237 97.5256 17.5474 97.4878 17.2044C97.4595 16.9377 97.4217 16.3852 97.4217 16.3757C97.4217 16.2709 97.3839 11.2124 97.3839 11.2124V10.9457C97.3839 9.97402 97.5917 9.03093 97.9978 8.14499C98.3284 7.42099 98.8479 6.88752 99.6129 6.63984C100.605 6.32547 101.898 6.41121 102.087 7.99257C102.106 8.14499 102.087 8.29741 102.087 8.45935V17.2044C102.021 17.7951 101.672 18.2238 101.058 18.3762C100.916 18.4048 100.765 18.4524 100.614 18.4905V18.9192H107.499C107.499 18.7668 107.499 18.5381 107.499 18.5381" fill="#001689"></path>
      <path d="M148.176 5.35379C146.977 4.75364 145.815 4.91558 144.729 5.63958C143.889 6.1921 143.416 6.93515 143.01 7.96398C142.982 8.04972 142.954 8.10688 142.916 8.19261C142.916 8.1164 142.916 8.0783 142.916 8.06877C142.916 7.85919 142.916 7.65914 142.887 7.43051C142.774 6.22068 141.971 5.48716 140.829 5.48716H137.192V5.87773H137.372C138.269 5.87773 138.987 6.60173 138.996 7.50672C138.996 7.50672 139.006 16.4328 138.968 16.871C138.911 17.4426 138.619 17.8903 138.061 18.0999C137.778 18.2047 137.202 18.3857 137.202 18.3857V18.7858H144.399C144.399 18.6429 144.399 18.4047 144.399 18.4047C144.399 18.4047 142.954 18.2523 142.954 16.8615V10.1169C143.02 9.55487 143.152 9.01187 143.388 8.48793C143.643 7.92588 143.955 7.39241 144.474 7.03041C144.89 6.74462 145.164 6.83036 145.362 7.29714C145.494 7.57341 145.608 7.86872 145.74 8.14498C146.212 9.11666 147.421 9.49771 148.328 8.96424C148.989 8.57366 149.348 7.95446 149.348 7.22093C149.348 6.42073 148.942 5.74437 148.195 5.37284" fill="#001689"></path>
      <path d="M156.535 3.86768C156.535 5.3633 155.374 6.53503 153.863 6.53503C152.351 6.53503 151.171 5.3633 151.171 3.86768C151.171 2.37206 152.361 1.23843 153.863 1.23843C155.364 1.23843 156.535 2.41016 156.535 3.86768ZM151.841 3.86768C151.841 5.03941 152.701 5.97298 153.882 5.97298C155.062 5.97298 155.874 5.03941 155.874 3.88673C155.874 2.73405 155.034 1.7719 153.872 1.7719C152.71 1.7719 151.851 2.715 151.851 3.8772L151.841 3.86768ZM153.447 5.24898H152.843V2.61974C153.079 2.57211 153.419 2.54353 153.844 2.54353C154.335 2.54353 154.562 2.61974 154.75 2.73405C154.892 2.84837 155.005 3.05795 155.005 3.31516C155.005 3.60094 154.779 3.82957 154.467 3.92484V3.95341C154.722 4.04868 154.864 4.2392 154.949 4.59167C155.024 4.99178 155.072 5.15372 155.138 5.24898H154.486C154.41 5.15372 154.363 4.91557 154.278 4.61073C154.231 4.32494 154.07 4.19157 153.74 4.19157H153.456V5.24898H153.447ZM153.466 3.75336H153.749C154.08 3.75336 154.354 3.63905 154.354 3.36279C154.354 3.12463 154.174 2.96268 153.797 2.96268C153.636 2.96268 153.523 2.98174 153.466 2.99126V3.74384V3.75336Z" fill="#001689"></path>
      </g>
      <defs>
      <clipPath>
      <rect width="156.535" height="19.5669" fill="white"></rect>
      </clipPath>
      </defs>
    </svg>