<svg width="15" height="13" viewBox="0 0 15 13" fill="none" xmlns="http://www.w3.org/2000/svg">
      <g clip-path="url(#clip0_0_1)">
      <path d="M10.1037 12.8419C10.2727 12.1646 10.377 11.4805 10.4643 10.7884C10.4711 10.7349 10.4779 10.6802 10.4858 10.6267C10.6264 9.56812 11.4256 8.71325 12.472 8.51974C13.2644 8.3729 14.0545 8.2124 14.8436 8.04621C15.0544 8.00182 15.0522 7.66829 14.8436 7.62162C14.0534 7.44632 13.2417 7.30859 12.4096 7.16516C11.3871 6.98872 10.5833 6.18736 10.4008 5.16289C10.2613 4.38201 10.1468 3.633 9.89289 3.10255C9.82033 2.95116 9.54146 2.96937 9.51311 3.15264C9.42015 3.76049 9.27731 4.44006 9.13901 5.12987C8.93948 6.1202 8.16066 6.89311 7.16984 7.07296C6.47604 7.19931 5.78791 7.37347 5.15533 7.58975C4.94334 7.6626 4.95581 7.93238 5.15533 8.00978C5.75504 8.23972 6.37741 8.36607 7.0066 8.46738C8.01895 8.63016 8.83745 9.39624 9.03698 10.4059C9.20022 11.23 9.40882 12.0439 9.67976 12.8442C9.74665 13.0422 10.0493 13.0673 10.1049 12.8442L10.1037 12.8419Z" fill="#E0237A"></path>
      </g>
      <g clip-path="url(#clip1_0_1)">
      <path d="M3.06215 5.90514C3.1635 5.49877 3.22608 5.08829 3.27845 4.67304C3.28254 4.64094 3.28662 4.60816 3.29138 4.57606C3.37572 3.94088 3.85526 3.42797 4.48308 3.31186C4.95854 3.22375 5.43263 3.12745 5.90605 3.02774C6.03256 3.0011 6.0312 2.80099 5.90605 2.77298C5.43195 2.66781 4.94493 2.58516 4.44567 2.49911C3.83213 2.39325 3.34987 1.91243 3.24036 1.29774C3.1567 0.829217 3.088 0.379815 2.93564 0.0615451C2.8921 -0.0292915 2.72478 -0.0183638 2.70777 0.0915964C2.65199 0.456309 2.56629 0.864049 2.48331 1.27794C2.36359 1.87213 1.8963 2.33588 1.30181 2.44379C0.885528 2.5196 0.47265 2.62409 0.0931011 2.75386C-0.0340954 2.79757 -0.0266132 2.95944 0.0931011 3.00588C0.452924 3.14384 0.826351 3.21966 1.20386 3.28044C1.81127 3.37811 2.30237 3.83775 2.42209 4.44356C2.52004 4.93804 2.64519 5.42637 2.80776 5.90651C2.84789 6.02535 3.0295 6.04037 3.06283 5.90651L3.06215 5.90514Z" fill="#E0237A"></path>
      </g>
      <defs>
      <clipPath>
      <rect width="10" height="10" fill="white" transform="translate(5 3)"></rect>
      </clipPath>
      <clipPath>
      <rect width="6" height="6" fill="white"></rect>
      </clipPath>
      </defs>
    </svg>